<svg xmlns="http://www.w3.org/2000/svg" viewBox="0 0 776.64 582.48"><defs><style>.cls-1{fill:#f3f3f3;}.cls-2{fill:none;stroke:#000;stroke-miterlimit:10;stroke-width:10px;}</style></defs><title>writr3</title><g id="Layer_2" data-name="Layer 2"><rect class="cls-1" width="776.64" height="582.48"/></g><g id="Layer_1" data-name="Layer 1"><path class="cls-2" d="M771.43,340.7a65.3,65.3,0,1,1,130.6,0Z" transform="translate(-251.68 -215.12)"/><path class="cls-2" d="M481.3,653.93V365.4a90,90,0,0,1,90-90H836.73" transform="translate(-251.68 -215.12)"/><line class="cls-2" x1="519.75" y1="125.58" x2="519.75" y2="461.38"/><line class="cls-2" x1="189.02" y1="522.2" x2="454.45" y2="522.2"/><path class="cls-2" d="M443.27,737.32A65.3,65.3,0,0,1,378,672H640.83a65.3,65.3,0,1,0,130.6,0" transform="translate(-251.68 -215.12)"/><path class="cls-2" d="M288.6,140.34h45.71a1,1,0,0,1,1,1v46.71a1,1,0,0,1-1,1H287.6a1,1,0,0,1-1-1V142.34A2,2,0,0,1,288.6,140.34Z"/><rect x="365.89" y="141.78" width="116.62" height="10"/><rect x="365.89" y="176.33" width="116.62" height="10"/><rect x="286.44" y="210.87" width="195.91" height="10"/><rect x="286.44" y="279.96" width="195.91" height="10"/><rect x="286.44" y="349.06" width="195.91" height="10"/><rect x="286.33" y="245.66" width="127.89" height="9.45"/><rect x="429.11" y="245.42" width="53.37" height="10"/><rect x="286.44" y="314.51" width="53.37" height="10"/><rect x="354.47" y="314.79" width="127.89" height="9.45"/><rect x="286.33" y="383.67" width="163.17" height="10"/><rect x="464.15" y="383.53" width="18.33" height="10"/></g></svg>